<svg width="567" height="97" viewBox="0 0 567 97" fill="none" xmlns="http://www.w3.org/2000/svg">
<path d="M0.840909 16.0455V1.90909H75.1136V16.0455H46.3409V95H29.6136V16.0455H0.840909ZM89.4318 95V1.90909H124.341C131.492 1.90909 137.492 3.15151 142.341 5.63636C147.22 8.12121 150.902 11.6061 153.386 16.0909C155.902 20.5455 157.159 25.7424 157.159 31.6818C157.159 37.6515 155.886 42.8333 153.341 47.2273C150.826 51.5909 147.114 54.9697 142.205 57.3636C137.295 59.7273 131.265 60.9091 124.114 60.9091H99.25V46.9091H121.841C126.023 46.9091 129.447 46.3333 132.114 45.1818C134.78 44 136.75 42.2879 138.023 40.0455C139.326 37.7727 139.977 34.9848 139.977 31.6818C139.977 28.3788 139.326 25.5606 138.023 23.2273C136.72 20.8636 134.735 19.0758 132.068 17.8636C129.402 16.6212 125.962 16 121.75 16H106.295V95H89.4318ZM137.523 52.8182L160.568 95H141.75L119.114 52.8182H137.523ZM189.545 1.90909V95H172.682V1.90909H189.545ZM270.17 31.6364C269.413 29.1818 268.367 26.9848 267.034 25.0455C265.731 23.0758 264.155 21.3939 262.307 20C260.489 18.6061 258.398 17.5606 256.034 16.8636C253.67 16.1364 251.095 15.7727 248.307 15.7727C243.307 15.7727 238.852 17.0303 234.943 19.5455C231.034 22.0606 227.958 25.7576 225.716 30.6364C223.504 35.4848 222.398 41.3939 222.398 48.3636C222.398 55.3939 223.504 61.3485 225.716 66.2273C227.928 71.1061 231.004 74.8182 234.943 77.3636C238.883 79.8788 243.458 81.1364 248.67 81.1364C253.398 81.1364 257.489 80.2273 260.943 78.4091C264.428 76.5909 267.11 74.0152 268.989 70.6818C270.867 67.3182 271.807 63.3788 271.807 58.8636L275.625 59.4545H250.352V46.2727H288.125V57.4545C288.125 65.4242 286.428 72.3182 283.034 78.1364C279.64 83.9545 274.973 88.4394 269.034 91.5909C263.095 94.7121 256.277 96.2727 248.58 96.2727C240.004 96.2727 232.473 94.3485 225.989 90.5C219.534 86.6212 214.489 81.1212 210.852 74C207.246 66.8485 205.443 58.3636 205.443 48.5455C205.443 41.0303 206.504 34.3182 208.625 28.4091C210.777 22.5 213.777 17.4848 217.625 13.3636C221.473 9.21212 225.989 6.0606 231.17 3.90909C236.352 1.72727 241.989 0.63636 248.08 0.63636C253.231 0.63636 258.034 1.39394 262.489 2.90909C266.943 4.39394 270.898 6.51515 274.352 9.27273C277.837 12.0303 280.701 15.303 282.943 19.0909C285.186 22.8788 286.655 27.0606 287.352 31.6364H270.17ZM387.614 48.4545C387.614 58.4848 385.735 67.0758 381.977 74.2273C378.25 81.3485 373.159 86.803 366.705 90.5909C360.28 94.3788 352.992 96.2727 344.841 96.2727C336.689 96.2727 329.386 94.3788 322.932 90.5909C316.508 86.7727 311.417 81.303 307.659 74.1818C303.932 67.0303 302.068 58.4545 302.068 48.4545C302.068 38.4242 303.932 29.8485 307.659 22.7273C311.417 15.5758 316.508 10.1061 322.932 6.31818C329.386 2.5303 336.689 0.63636 344.841 0.63636C352.992 0.63636 360.28 2.5303 366.705 6.31818C373.159 10.1061 378.25 15.5758 381.977 22.7273C385.735 29.8485 387.614 38.4242 387.614 48.4545ZM370.659 48.4545C370.659 41.3939 369.553 35.4394 367.341 30.5909C365.159 25.7121 362.129 22.0303 358.25 19.5455C354.371 17.0303 349.902 15.7727 344.841 15.7727C339.78 15.7727 335.311 17.0303 331.432 19.5455C327.553 22.0303 324.508 25.7121 322.295 30.5909C320.114 35.4394 319.023 41.3939 319.023 48.4545C319.023 55.5151 320.114 61.4848 322.295 66.3636C324.508 71.2121 327.553 74.8939 331.432 77.4091C335.311 79.8939 339.78 81.1364 344.841 81.1364C349.902 81.1364 354.371 79.8939 358.25 77.4091C362.129 74.8939 365.159 71.2121 367.341 66.3636C369.553 61.4848 370.659 55.5151 370.659 48.4545ZM391.943 1.90909H410.989L433.761 43.0909H434.67L457.443 1.90909H476.489L442.625 60.2727V95H425.807V60.2727L391.943 1.90909ZM566.364 48.4545C566.364 58.4848 564.485 67.0758 560.727 74.2273C557 81.3485 551.909 86.803 545.455 90.5909C539.03 94.3788 531.742 96.2727 523.591 96.2727C515.439 96.2727 508.136 94.3788 501.682 90.5909C495.258 86.7727 490.167 81.303 486.409 74.1818C482.682 67.0303 480.818 58.4545 480.818 48.4545C480.818 38.4242 482.682 29.8485 486.409 22.7273C490.167 15.5758 495.258 10.1061 501.682 6.31818C508.136 2.5303 515.439 0.63636 523.591 0.63636C531.742 0.63636 539.03 2.5303 545.455 6.31818C551.909 10.1061 557 15.5758 560.727 22.7273C564.485 29.8485 566.364 38.4242 566.364 48.4545ZM549.409 48.4545C549.409 41.3939 548.303 35.4394 546.091 30.5909C543.909 25.7121 540.879 22.0303 537 19.5455C533.121 17.0303 528.652 15.7727 523.591 15.7727C518.53 15.7727 514.061 17.0303 510.182 19.5455C506.303 22.0303 503.258 25.7121 501.045 30.5909C498.864 35.4394 497.773 41.3939 497.773 48.4545C497.773 55.5151 498.864 61.4848 501.045 66.3636C503.258 71.2121 506.303 74.8939 510.182 77.4091C514.061 79.8939 518.53 81.1364 523.591 81.1364C528.652 81.1364 533.121 79.8939 537 77.4091C540.879 74.8939 543.909 71.2121 546.091 66.3636C548.303 61.4848 549.409 55.5151 549.409 48.4545Z" fill="black"/>
</svg>
